<svg width="20" height="20" viewBox="0 0 20 20" fill="none" xmlns="http://www.w3.org/2000/svg">
<g clip-path="url(#clip0_2011_4241)">
<path fill-rule="evenodd" clip-rule="evenodd" d="M11.333 1.09621C11.333 0.504475 10.8533 0.0247803 10.2616 0.0247803C9.66985 0.0247803 9.19015 0.504475 9.19015 1.09621V2.17262C9.19015 2.76435 9.66985 3.24405 10.2616 3.24405C10.8533 3.24405 11.333 2.76435 11.333 2.17262V1.09621ZM9.42104 4.1831C9.93349 3.88723 10.5888 4.06282 10.8846 4.57527L16.3955 14.1204C16.6914 14.6329 16.5158 15.2882 16.0034 15.584C15.4909 15.8799 14.8356 15.7043 14.5398 15.1919L14.4607 15.0547L10.0441 16.0803C10.1856 16.6004 10.1903 17.1532 10.0508 17.6836C9.84155 18.4792 9.32479 19.159 8.61425 19.5736C7.90371 19.9882 7.05758 20.1034 6.26201 19.8942C5.46642 19.6849 4.78657 19.1682 4.37199 18.4576L4.36952 18.4534L3.83218 17.5227L1.75572 18.0049C1.44949 18.0759 1.13277 17.9384 0.975576 17.6662L0.105473 16.1592C-0.0517177 15.8869 -0.0124146 15.5439 0.202284 15.3142L9.10958 5.78649L9.02886 5.6467C8.73299 5.13425 8.90858 4.47897 9.42104 4.1831ZM6.01404 17.016L7.95202 16.566C8.01851 16.7484 8.02854 16.9482 7.97846 17.1384C7.91378 17.3844 7.75402 17.5946 7.53435 17.7227C7.31468 17.8509 7.05311 17.8866 6.80715 17.8219C6.56184 17.7573 6.35212 17.5983 6.22387 17.3794L6.01404 17.016ZM19.9846 9.74772C19.9846 10.3395 19.5049 10.8191 18.9132 10.8191H17.8368C17.2451 10.8191 16.7654 10.3395 16.7654 9.74772C16.7654 9.15599 17.2451 8.67629 17.8368 8.67629H18.9132C19.5049 8.67629 19.9846 9.15599 19.9846 9.74772ZM2.68764 10.8191C3.27938 10.8191 3.75907 10.3395 3.75907 9.74772C3.75907 9.15599 3.27938 8.67629 2.68764 8.67629H1.61124C1.0195 8.67629 0.539803 9.15599 0.539803 9.74772C0.539803 10.3395 1.0195 10.8191 1.61124 10.8191H2.68764ZM5.80604 5.29305C5.38761 5.71145 4.70922 5.71143 4.29081 5.29299L3.38561 4.38773C2.96719 3.9693 2.96722 3.2909 3.38565 2.8725C3.80408 2.4541 4.48248 2.45412 4.90088 2.87255L5.80609 3.77782C6.22449 4.19625 6.22448 4.87463 5.80604 5.29305ZM17.1371 4.38773C17.5554 3.96932 17.5554 3.29092 17.1371 2.8725C16.7186 2.45409 16.0402 2.45409 15.6218 2.8725L14.7059 3.78829C14.2875 4.2067 14.2875 4.88509 14.7059 5.30352C15.1244 5.72193 15.8028 5.72193 16.2212 5.30352L17.1371 4.38773Z" fill="currentColor"/>
</g>
<defs>
<clipPath id="clip0_2011_4241">
<rect width="20" height="20" fill="white"/>
</clipPath>
</defs>
</svg>
