<svg viewBox="0 0 24 24" fill="currentColor" xmlns="http://www.w3.org/2000/svg">
<g clip-path="url(#clip0_2011_4252)">
<path fill-rule="evenodd" clip-rule="evenodd" d="M7.37574 2.44651C7.72093 2.92714 7.61111 3.59658 7.1305 3.94175C6.20656 4.60531 5.45376 5.47917 4.93427 6.49114C4.41477 7.50311 4.1435 8.62415 4.14286 9.76168C4.14253 10.3534 3.66256 10.8328 3.07082 10.8325C2.47909 10.8322 1.99967 10.3522 2 9.76047C2.00084 8.283 2.35318 6.82692 3.02792 5.51252C3.70266 4.19812 4.68044 3.06312 5.8805 2.20126C6.36111 1.85608 7.03057 1.96588 7.37574 2.44651ZM7.45431 5.66868C8.6599 4.4631 10.295 3.7858 12 3.7858C13.705 3.7858 15.3401 4.4631 16.5457 5.66868C17.7513 6.87427 18.4286 8.50941 18.4286 10.2144V15.2144C18.4286 15.5933 18.5791 15.9566 18.847 16.2245C19.1149 16.4924 19.4783 16.6429 19.8571 16.6429C20.2516 16.6429 20.5714 16.9628 20.5714 17.3572C20.5714 17.7517 20.2516 18.0715 19.8571 18.0715H4.14286C3.74837 18.0715 3.42857 17.7517 3.42857 17.3572C3.42857 16.9628 3.74837 16.6429 4.14286 16.6429C4.52174 16.6429 4.8851 16.4924 5.15301 16.2245C5.42091 15.9566 5.57143 15.5933 5.57143 15.2144V10.2144C5.57143 8.50941 6.24873 6.87427 7.45431 5.66868ZM9.5 20.9287C9.5 20.3369 9.9797 19.8572 10.5714 19.8572H13.4286C14.0203 19.8572 14.5 20.3369 14.5 20.9287C14.5 21.5204 14.0203 22.0001 13.4286 22.0001H10.5714C9.9797 22.0001 9.5 21.5204 9.5 20.9287ZM18.1196 2.20126C17.6389 1.85608 16.9694 1.96588 16.6243 2.44651C16.2791 2.92714 16.3889 3.59658 16.8696 3.94175C17.7934 4.60531 18.5463 5.47917 19.0657 6.49114C19.5853 7.50311 19.8566 8.62415 19.8571 9.76168C19.8574 10.3534 20.3374 10.8328 20.9291 10.8325C21.5209 10.8322 22.0003 10.3522 22 9.76047C21.9991 8.283 21.6469 6.82692 20.9721 5.51252C20.2973 4.19812 19.3196 3.06312 18.1196 2.20126Z" fill="currentColor"/>
</g>
<defs>
<clipPath id="clip0_2011_4252">
<rect width="20" height="20" fill="currentColor" transform="translate(2 2)"/>
</clipPath>
</defs>
</svg>
