<svg width="24" height="24" viewBox="0 0 24 24" fill="none" xmlns="http://www.w3.org/2000/svg">
<path d="M5.0944 3.01738L4.7888 2.63709L5.0944 3.01738C5.49648 2.69428 6.06108 2.5 6.66682 2.5H17.3335C17.9392 2.5 18.5039 2.69428 18.906 3.01738L19.2143 2.63365L18.906 3.01738C19.3052 3.33815 19.5002 3.7468 19.5002 4.14286V21.2857C19.5002 21.3053 19.4778 21.4098 19.2935 21.4711L19.2934 21.4712C19.1083 21.5328 18.9063 21.4899 18.7958 21.4011L12.3134 16.1918L12.0002 15.9401L11.687 16.1918L5.20438 21.4011C5.09392 21.4899 4.892 21.5328 4.70681 21.4712C4.52259 21.4098 4.50015 21.3053 4.50015 21.2857V4.14286C4.50015 3.74685 4.69519 3.33818 5.0944 3.01738Z" fill="currentColor" fill-opacity="0.8" stroke="currentColor"/>
</svg>
