<svg width="24" height="24" viewBox="0 0 28 24" fill="none" xmlns="http://www.w3.org/2000/svg">
<path fill-rule="evenodd" clip-rule="evenodd" d="M5.94226 4.66667C3.02881 4.66667 0.666992 7.02849 0.666992 9.94194V16.6667C0.666992 20.3486 3.65176 23.3333 7.33366 23.3333H20.667C24.3489 23.3333 27.3337 20.3486 27.3337 16.6667V9.94194C27.3337 7.02849 24.9718 4.66667 22.0584 4.66667C21.2143 4.66667 20.4514 4.16362 20.1189 3.38777L19.706 2.42432C19.0757 0.953587 17.6295 0 16.0294 0H14.0003H11.9712C10.3711 0 8.92498 0.953589 8.29466 2.42432L7.88176 3.38777C7.54925 4.16362 6.78636 4.66667 5.94226 4.66667ZM17.2503 12.6667C17.2503 10.8717 15.7953 9.41667 14.0003 9.41667C12.2054 9.41667 10.7503 10.8717 10.7503 12.6667C10.7503 14.4616 12.2054 15.9167 14.0003 15.9167C15.7953 15.9167 17.2503 14.4616 17.2503 12.6667ZM14.0003 7.91667C16.6237 7.91667 18.7503 10.0433 18.7503 12.6667C18.7503 15.29 16.6237 17.4167 14.0003 17.4167C11.377 17.4167 9.25033 15.29 9.25033 12.6667C9.25033 10.0433 11.377 7.91667 14.0003 7.91667Z" fill="#5A5B66"/>
</svg>
