<svg viewBox="0 0 17 16" fill="none" xmlns="http://www.w3.org/2000/svg">
<g id="Icon/Filled/Camera">
<g id="Camera">
<path id="Subtract" fill-rule="evenodd" clip-rule="evenodd" d="M4.31662 4.28464C2.76104 4.28464 1.5 5.54568 1.5 7.10125V10.6918C1.5 12.6576 3.09365 14.2513 5.05952 14.2513H12.1786C14.1444 14.2513 15.7381 12.6576 15.7381 10.6918V7.10125C15.7381 5.54568 14.4771 4.28464 12.9215 4.28464C12.4708 4.28464 12.0635 4.01605 11.8859 3.6018L11.6655 3.08738C11.3289 2.30212 10.5568 1.79297 9.70243 1.79297H8.61905H7.53566C6.68132 1.79297 5.90917 2.30212 5.57263 3.08738L5.35217 3.6018C5.17463 4.01605 4.76731 4.28464 4.31662 4.28464ZM10.0047 8.5561C10.0047 7.79079 9.38429 7.17038 8.61898 7.17038C7.85367 7.17038 7.23326 7.79079 7.23326 8.5561C7.23326 9.3214 7.85367 9.94181 8.61898 9.94181C9.38429 9.94181 10.0047 9.3214 10.0047 8.5561ZM8.61898 5.67038C10.2127 5.67038 11.5047 6.96236 11.5047 8.5561C11.5047 10.1498 10.2127 11.4418 8.61898 11.4418C7.02524 11.4418 5.73326 10.1498 5.73326 8.5561C5.73326 6.96236 7.02524 5.67038 8.61898 5.67038Z" fill="currentColor"/>
</g>
</g>
</svg>