<svg width="160" height="160" viewBox="0 0 160 160" fill="none" xmlns="http://www.w3.org/2000/svg">
<path d="M124 92C124 122.928 98.9279 148 68 148C37.0721 148 12 122.928 12 92C12 61.0721 37.0721 36 68 36C98.9279 36 124 61.0721 124 92Z" fill="#A4B5FA"/>
<path d="M149 29.5C149 39.7173 140.717 48 130.5 48C120.283 48 112 39.7173 112 29.5C112 19.2827 120.283 11 130.5 11C140.717 11 149 19.2827 149 29.5Z" fill="#A4B5FA"/>
<path fill-rule="evenodd" clip-rule="evenodd" d="M97.9258 44.6582C96.7594 53.7152 99.5458 66.0072 112 80.5C115.167 87.5 118.8 103.7 108 112.5C102.51 118.601 95.8396 129.812 100.979 137.264C91.7283 144.015 80.3295 148 68 148C37.0721 148 12 122.928 12 92C12 89.1426 12.214 86.3351 12.6269 83.5928C17.6664 85.9302 23.3476 87.5276 29.6471 87.8505C39.6299 89.5369 45.6514 94.511 41.388 115.153C40.0084 124.06 44.9548 128.727 57.8537 124.27C62.725 122.587 66.1823 119.857 72.3468 109.339C75.5398 104.669 80.9784 90.8273 77.1892 72.8173C75.6519 67.3403 65.9739 57.5246 39.5605 62.078C30.9788 63.6896 25.604 63.6435 21.016 61.5166C31.0017 46.1572 48.3147 36 68 36C79.0054 36 89.2693 39.1747 97.9258 44.6582Z" fill="#6B87FA"/>
</svg>
