<svg viewBox="0 0 32 32" fill="none" xmlns="http://www.w3.org/2000/svg">
<g id="Icon/Filled/delete">
<g id="Close">
<path id="Subtract" fill-rule="evenodd" clip-rule="evenodd" d="M9.33335 1.66797C5.09917 1.66797 1.66669 5.10045 1.66669 9.33464V22.668C1.66669 26.9022 5.09917 30.3346 9.33335 30.3346H22.6667C26.9009 30.3346 30.3334 26.9022 30.3334 22.668V9.33464C30.3334 5.10045 26.9009 1.66797 22.6667 1.66797H9.33335ZM19.3591 12.6428C19.652 12.9357 19.652 13.4106 19.3591 13.7035L17.061 16.0016L19.3591 18.2997C19.652 18.5926 19.652 19.0675 19.3591 19.3604C19.0662 19.6533 18.5913 19.6533 18.2984 19.3604L16.0003 17.0623L13.7022 19.3604C13.4093 19.6533 12.9345 19.6533 12.6416 19.3604C12.3487 19.0675 12.3487 18.5926 12.6416 18.2997L14.9396 16.0016L12.6416 13.7036C12.3487 13.4107 12.3487 12.9358 12.6416 12.6429C12.9345 12.35 13.4093 12.35 13.7022 12.6429L16.0003 14.941L18.2984 12.6428C18.5913 12.35 19.0662 12.35 19.3591 12.6428Z" fill="currentColor"/>
</g>
</g>
</svg>
