<svg viewBox="0 0 25 24" fill="none" xmlns="http://www.w3.org/2000/svg">
<g clip-path="url(#clip0_2092_4296)">
<path d="M5.10688 13.0756L11.9156 19.6246C12.1502 19.8501 12.2674 19.9629 12.4057 19.9907C12.468 20.0032 12.532 20.0032 12.5943 19.9907C12.7326 19.9629 12.8498 19.8501 13.0844 19.6246L19.8931 13.0756C21.8088 11.2329 22.0415 8.20074 20.4303 6.07444L20.1273 5.67464C18.1999 3.13098 14.3309 3.55757 12.9766 6.46308C12.7853 6.8735 12.2147 6.8735 12.0234 6.46308C10.6691 3.55757 6.80015 3.13098 4.8727 5.67464L4.56974 6.07445C2.95854 8.20074 3.19118 11.2329 5.10688 13.0756Z" fill="currentColor" stroke="#B7BBC2" stroke-width="1.5"/>
</g>
<defs>
<clipPath id="clip0_2092_4296">
<rect width="20" height="20" fill="white" transform="translate(2.5 2)"/>
</clipPath>
</defs>
</svg>
