<svg viewBox="0 0 24 24" fill="currentColor" xmlns="http://www.w3.org/2000/svg">
<path fill-rule="evenodd" clip-rule="evenodd" d="M12 2C6.47715 2 2 6.47715 2 12C2 17.5228 6.47715 22 12 22C17.5228 22 22 17.5228 22 12C22 6.47715 17.5228 2 12 2ZM11.9998 10C12.5521 10 12.9998 10.4477 12.9998 11V16.5814C12.9998 17.1337 12.5521 17.5814 11.9998 17.5814C11.4475 17.5814 10.9998 17.1337 10.9998 16.5814V11C10.9998 10.4477 11.4475 10 11.9998 10ZM11.9998 9.00002C12.5521 9.00002 12.9998 8.5523 12.9998 8.00002C12.9998 7.44773 12.5521 7.00002 11.9998 7.00002C11.4475 7.00002 10.9998 7.44773 10.9998 8.00002C10.9998 8.5523 11.4475 9.00002 11.9998 9.00002Z" fill="currentColor"/>
</svg>
