<svg width="20" height="20" viewBox="0 0 20 20" fill="none" xmlns="http://www.w3.org/2000/svg">
<g id="Check">
<path id="Subtract" fill-rule="evenodd" clip-rule="evenodd" d="M0 5.34884C0 2.39476 2.39476 0 5.34884 0H14.6512C17.6052 0 20 2.39476 20 5.34884V14.6512C20 17.6052 17.6052 20 14.6512 20H5.34884C2.39476 20 0 17.6052 0 14.6512V5.34884ZM6.71967 9.78033L8.71967 11.7803C9.01256 12.0732 9.48743 12.0732 9.78033 11.7803L13.7803 7.78033C14.0732 7.48744 14.0732 7.01256 13.7803 6.71967C13.4874 6.42678 13.0126 6.42678 12.7197 6.71967L9.25 10.1893L7.78033 8.71967C7.48744 8.42678 7.01256 8.42678 6.71967 8.71967C6.42678 9.01256 6.42678 9.48744 6.71967 9.78033Z" fill="currentColor"/>
</g>
</svg>
