<svg viewBox="0 0 24 24" fill="currentColor" xmlns="http://www.w3.org/2000/svg">
<path fill-rule="evenodd" clip-rule="evenodd" d="M3 10.6667C3 5.87281 6.92493 2 11.75 2C16.5751 2 20.5 5.87281 20.5 10.6667C20.5 13.6482 18.7613 16.5909 16.9186 18.7329C15.986 19.8169 14.9963 20.732 14.1233 21.3828C13.6874 21.7077 13.2686 21.9758 12.8905 22.1662C12.536 22.3447 12.1312 22.5 11.75 22.5C11.3688 22.5 10.964 22.3447 10.6095 22.1662C10.2314 21.9758 9.81256 21.7077 9.37674 21.3828C8.50371 20.732 7.51395 19.8169 6.58144 18.7329C4.73872 16.5909 3 13.6482 3 10.6667ZM11.75 13.25C10.0931 13.25 8.75 11.9069 8.75 10.25C8.75 8.59315 10.0931 7.25 11.75 7.25C13.4069 7.25 14.75 8.59315 14.75 10.25C14.75 11.9069 13.4069 13.25 11.75 13.25Z" fill="currentColor"/>
</svg>
