<svg width="20" height="20" viewBox="0 0 20 20" fill="none" xmlns="http://www.w3.org/2000/svg">
<g id="icon/line/20*20/More circle">
<path id="Ellipse 37" d="M11.25 5.25C11.25 5.94036 10.6904 6.5 10 6.5C9.30964 6.5 8.75 5.94036 8.75 5.25C8.75 4.55964 9.30964 4 10 4C10.6904 4 11.25 4.55964 11.25 5.25Z" fill="#B7BBC2"/>
<path id="Ellipse 40" d="M11.25 9.75C11.25 10.4404 10.6904 11 10 11C9.30964 11 8.75 10.4404 8.75 9.75C8.75 9.05964 9.30964 8.5 10 8.5C10.6904 8.5 11.25 9.05964 11.25 9.75Z" fill="#B7BBC2"/>
<path id="Ellipse 41" d="M11.25 14.25C11.25 14.9404 10.6904 15.5 10 15.5C9.30964 15.5 8.75 14.9404 8.75 14.25C8.75 13.5596 9.30964 13 10 13C10.6904 13 11.25 13.5596 11.25 14.25Z" fill="#B7BBC2"/>
</g>
</svg>
