<svg width="64" height="14" viewBox="0 0 64 14" fill="none" xmlns="http://www.w3.org/2000/svg">
<path d="M53.3933 7.108C53.3933 5.488 54.7073 4.45 57.3353 3.994L59.2433 3.688C59.2433 3.328 59.2133 3.088 59.1533 2.968C59.0933 2.836 58.9493 2.77 58.7213 2.77C58.5053 2.77 58.2893 2.866 58.0733 3.058C57.8573 3.25 57.6533 3.346 57.4613 3.346H54.4013C54.1373 3.346 54.0053 3.22 54.0053 2.968C54.0053 2.704 54.0953 2.428 54.2753 2.14C54.4673 1.84 54.7373 1.546 55.0853 1.258C55.4453 0.970001 55.9433 0.730001 56.5793 0.538001C57.2273 0.346001 57.9473 0.25 58.7393 0.25C60.3473 0.25 61.5533 0.586 62.3573 1.258C63.1613 1.93 63.5633 2.89 63.5633 4.138V9.304C63.5633 9.436 63.5153 9.55 63.4193 9.646C63.3233 9.742 63.2093 9.79 63.0773 9.79H59.9273C59.7953 9.79 59.6813 9.742 59.5853 9.646C59.4893 9.55 59.4413 9.436 59.4413 9.304V8.8C58.8773 9.58 58.0553 9.97 56.9753 9.97C55.8953 9.97 55.0253 9.7 54.3653 9.16C53.7173 8.608 53.3933 7.924 53.3933 7.108ZM58.1273 7.306C58.9073 7.306 59.2973 6.838 59.2973 5.902L58.2353 6.136C57.7073 6.256 57.4433 6.478 57.4433 6.802C57.4433 6.946 57.5033 7.066 57.6233 7.162C57.7433 7.258 57.9113 7.306 58.1273 7.306Z" fill="#E9E9EB"/>
<path d="M41.2686 5.88369V0.915688C41.2686 0.783688 41.3166 0.669688 41.4126 0.573688C41.5086 0.477687 41.6226 0.429688 41.7546 0.429688H45.1926C45.3246 0.429688 45.4386 0.477687 45.5346 0.573688C45.6306 0.669688 45.6786 0.783688 45.6786 0.915688V5.75769C45.6786 6.41769 45.9786 6.74769 46.5786 6.74769C47.1786 6.74769 47.4786 6.41769 47.4786 5.75769V0.915688C47.4786 0.783688 47.5266 0.669688 47.6226 0.573688C47.7186 0.477687 47.8326 0.429688 47.9646 0.429688H51.3846C51.5166 0.429688 51.6306 0.477687 51.7266 0.573688C51.8226 0.669688 51.8706 0.783688 51.8706 0.915688V9.30369C51.8706 9.43569 51.8226 9.54969 51.7266 9.64569C51.6306 9.74169 51.5166 9.78969 51.3846 9.78969H48.2346C48.1026 9.78969 47.9886 9.74169 47.8926 9.64569C47.7966 9.54969 47.7486 9.43569 47.7486 9.30369V8.70969C47.1846 9.54969 46.1886 9.96969 44.7606 9.96969C43.7766 9.96969 42.9486 9.62769 42.2766 8.94369C41.6046 8.24769 41.2686 7.22769 41.2686 5.88369Z" fill="#E9E9EB"/>
<path d="M28.9421 5.308V4.39C28.9421 3.046 29.3021 2.02 30.0221 1.312C30.7421 0.604 31.6601 0.25 32.7761 0.25C33.8921 0.25 34.7741 0.658001 35.4221 1.474V0.916C35.4221 0.784001 35.4701 0.670001 35.5661 0.574C35.6621 0.478 35.7761 0.43 35.9081 0.43H39.0581C39.1901 0.43 39.3041 0.478 39.4001 0.574C39.4961 0.670001 39.5441 0.784001 39.5441 0.916L39.5621 9.484C39.5621 10.924 39.0941 11.992 38.1581 12.688C37.2221 13.396 35.9921 13.75 34.4681 13.75C33.5201 13.75 32.6741 13.618 31.9301 13.354C31.1861 13.102 30.6281 12.79 30.2561 12.418C29.5001 11.674 29.1221 11.044 29.1221 10.528C29.1221 10.396 29.1701 10.282 29.2661 10.186C29.3621 10.09 29.4761 10.042 29.6081 10.042H33.1181C33.3341 10.042 33.5081 10.174 33.6401 10.438C33.7841 10.714 34.0301 10.852 34.3781 10.852C34.8941 10.852 35.1521 10.528 35.1521 9.88V8.602C34.5641 9.118 33.7301 9.376 32.6501 9.376C31.5821 9.376 30.6941 9.052 29.9861 8.404C29.2901 7.756 28.9421 6.724 28.9421 5.308ZM34.2521 6.244C34.8161 6.244 35.1161 5.944 35.1521 5.344V4.372C35.1161 3.772 34.8161 3.472 34.2521 3.472C33.6521 3.472 33.3521 3.82 33.3521 4.516V5.2C33.3521 5.896 33.6521 6.244 34.2521 6.244Z" fill="#E9E9EB"/>
<path d="M17.2351 5.722V4.498C17.2351 3.13 17.7211 2.08 18.6931 1.348C19.6651 0.616 20.9191 0.25 22.4551 0.25C23.9911 0.25 25.2451 0.616 26.2171 1.348C27.1891 2.08 27.6751 3.13 27.6751 4.498V5.722C27.6751 7.102 27.2071 8.158 26.2711 8.89C25.3351 9.61 24.0631 9.97 22.4551 9.97C20.8471 9.97 19.5751 9.61 18.6391 8.89C17.7031 8.158 17.2351 7.102 17.2351 5.722ZM23.2651 5.866V4.354C23.2651 3.898 23.2051 3.58 23.0851 3.4C22.9651 3.22 22.7551 3.13 22.4551 3.13C22.1551 3.13 21.9451 3.22 21.8251 3.4C21.7051 3.58 21.6451 3.898 21.6451 4.354V5.866C21.6451 6.346 21.7051 6.67 21.8251 6.838C21.9451 7.006 22.1551 7.09 22.4551 7.09C22.7551 7.09 22.9651 7 23.0851 6.82C23.2051 6.64 23.2651 6.322 23.2651 5.866Z" fill="#E9E9EB"/>
<path d="M10.9307 3.472C10.7387 3.472 10.5707 3.544 10.4267 3.688C10.2947 3.832 10.2287 4.048 10.2287 4.336V9.304C10.2287 9.436 10.1807 9.55 10.0847 9.646C9.98874 9.742 9.87474 9.79 9.74274 9.79H6.57474C6.44274 9.79 6.32874 9.742 6.23274 9.646C6.13674 9.55 6.08874 9.436 6.08874 9.304V4.462C6.08874 3.802 5.84874 3.472 5.36874 3.472C5.16474 3.472 4.99074 3.55 4.84674 3.706C4.71474 3.85 4.64874 4.054 4.64874 4.318V9.304C4.64874 9.436 4.60074 9.55 4.50474 9.646C4.40874 9.742 4.29474 9.79 4.16274 9.79H0.922737C0.790737 9.79 0.676737 9.742 0.580737 9.646C0.484737 9.55 0.436737 9.436 0.436737 9.304V0.916C0.436737 0.784001 0.484737 0.670001 0.580737 0.574C0.676737 0.478 0.790737 0.43 0.922737 0.43H3.89274C4.02474 0.43 4.13874 0.478 4.23474 0.574C4.33074 0.670001 4.37874 0.784001 4.37874 0.916V1.51C4.61874 1.198 4.96074 0.916 5.40474 0.664001C5.89674 0.388 6.44874 0.25 7.06074 0.25C8.38074 0.25 9.26874 0.742001 9.72474 1.726C10.0127 1.306 10.4087 0.958001 10.9127 0.682C11.4167 0.394 11.9387 0.25 12.4787 0.25C13.4507 0.25 14.2427 0.592001 14.8547 1.276C15.4787 1.96 15.7907 2.98 15.7907 4.336V9.304C15.7907 9.436 15.7427 9.55 15.6467 9.646C15.5507 9.742 15.4367 9.79 15.3047 9.79H12.1367C12.0047 9.79 11.8907 9.742 11.7947 9.646C11.6987 9.55 11.6507 9.436 11.6507 9.304V4.462C11.6507 3.802 11.4107 3.472 10.9307 3.472Z" fill="#E9E9EB"/>
</svg>
