<svg width="160" height="160" viewBox="0 0 160 160" fill="none" xmlns="http://www.w3.org/2000/svg">
<path fill-rule="evenodd" clip-rule="evenodd" d="M80 104C120.317 104 153 93.2548 153 80C153 66.7452 120.317 56 80 56C39.6832 56 7 66.7452 7 80C7 93.2548 39.6832 104 80 104ZM80 96C110.928 96 136 88.8366 136 80C136 71.1634 110.928 64 80 64C49.0721 64 24 71.1634 24 80C24 88.8366 49.0721 96 80 96Z" fill="#F46A66"/>
<path d="M124 80C124 104.301 104.301 124 80 124C55.6995 124 36 104.301 36 80C36 55.6995 55.6995 36 80 36C104.301 36 124 55.6995 124 80Z" fill="#FC9894"/>
<path d="M124 90C113.5 93 99.5204 96.4999 82.0002 96.4999C64.4799 96.4999 46.8389 93.7011 36.5703 90.1016C37.1269 93.5317 38.699 96.8843 40.0002 99.9999C42.5002 101 66.9661 104.5 82.0002 104.5C97.0342 104.5 112.888 101.561 124.5 99C125.801 95.8844 124 92 124 90Z" fill="#F46A66"/>
</svg>
