<svg  viewBox="0 0 24 24" fill="none" xmlns="http://www.w3.org/2000/svg">
<g clip-path="url(#clip0_2092_4365)">
<path fill-rule="evenodd" clip-rule="evenodd" d="M19.6786 2.00148C20.2525 2.01842 20.8663 2.18835 21.3384 2.66606C22.0638 3.3943 22.0798 4.42152 21.9137 5.26656C21.7398 6.15265 21.3115 7.15657 20.7269 8.19956C20.4153 8.75532 20.0503 9.33836 19.6374 9.94012C19.8614 10.7799 19.9455 11.6541 19.8835 12.5271C19.7898 13.8424 19.3672 15.1131 18.6544 16.2224C17.9416 17.3317 16.9614 18.2441 15.8041 18.8756C14.0623 19.8261 11.9865 20.0799 10.0663 19.5912C9.42886 20.0318 8.81071 20.4187 8.22226 20.7454C7.17376 21.3275 6.16405 21.75 5.27339 21.9187C4.42373 22.0798 3.39504 22.0568 2.66952 21.3311C2.192 20.8536 2.0197 20.2325 2.00166 19.6481C1.98383 19.0708 2.11098 18.4511 2.31696 17.8326C2.70376 16.6713 3.43411 15.323 4.40688 13.9102C4.20073 13.1006 4.12317 12.2571 4.18332 11.4105C4.31757 9.52119 5.12875 7.74371 6.46791 6.40439C7.80706 5.06507 9.58433 4.25379 11.4734 4.11952C12.3301 4.05863 13.1838 4.13884 14.0022 4.35067C15.4115 3.41471 16.7557 2.69233 17.9075 2.31021C18.5073 2.11124 19.1126 1.98476 19.6786 2.00148ZM16.3665 5.40216C16.4972 5.48851 16.6257 5.57896 16.7517 5.67344L16.7559 5.67659L17.4014 6.16819C16.3151 8.0064 14.5768 10.2156 12.4081 12.4101C10.2767 14.5668 8.10659 16.2845 6.28326 17.3671L5.75266 16.7095C5.74733 16.703 5.74214 16.6962 5.73706 16.6895C5.63305 16.5507 5.53395 16.4091 5.43982 16.2646C4.92786 17.1174 4.56341 17.8782 4.35269 18.5109C4.19189 18.9936 4.13912 19.3475 4.14635 19.5819C4.15077 19.7248 4.17518 19.7892 4.18671 19.8113C4.21941 19.8288 4.38963 19.902 4.87407 19.8103C5.44808 19.7015 6.23042 19.3967 7.18076 18.8691C7.70169 18.5798 8.25653 18.233 8.83507 17.8336C10.3923 16.7281 12.0574 15.3089 13.6798 13.6672C15.3031 12.0246 16.7168 10.3513 17.822 8.79305C18.2192 8.21784 18.5654 7.66705 18.8551 7.15024C19.3871 6.20105 19.6964 5.42303 19.8084 4.85289C19.9021 4.37588 19.8313 4.20977 19.8147 4.17871C19.7936 4.16898 19.7364 4.15009 19.6153 4.14652C19.3934 4.13997 19.0535 4.191 18.5832 4.34704C17.9609 4.55347 17.2111 4.90926 16.3665 5.40216Z" fill="currentColor"/>
</g>
<defs>
<clipPath id="clip0_2092_4365">
<rect width="20" height="20" fill="white" transform="translate(2 2)"/>
</clipPath>
</defs>
</svg>
