<svg width="20" height="20" viewBox="0 0 20 20" fill="none" xmlns="http://www.w3.org/2000/svg">
<g id="icon/solid/24*24/planet/on">
<g id="Vector">
<path fill-rule="evenodd" clip-rule="evenodd" d="M10.8838 12.9254C16.3847 11.3947 20.4484 8.6202 19.9602 6.72837C19.4721 4.83655 14.6171 4.54378 9.11616 6.07446C3.61527 7.60514 -0.448376 10.3796 0.0397539 12.2715C0.527883 14.1633 5.38294 14.4561 10.8838 12.9254ZM10.5892 11.7836C14.8091 10.6093 17.9662 8.63502 17.6407 7.3738C17.3153 6.11258 13.6306 6.04206 9.41078 7.21628C5.19091 8.3905 2.03384 10.3648 2.35926 11.626C2.68468 12.8873 6.36936 12.9578 10.5892 11.7836Z" fill="currentColor"/>
<path d="M16.0033 7.82948C16.8982 11.2978 14.9358 14.8574 11.6202 15.78C8.30462 16.7026 4.89133 14.6389 3.99643 11.1705C3.10152 7.70217 5.06389 4.1426 8.3795 3.21999C11.6951 2.29739 15.1084 4.36113 16.0033 7.82948Z" fill="currentColor"/>
<path d="M16.3715 9.25649C15.0493 10.0833 13.2708 11.1136 10.8803 11.7788C8.48983 12.444 5.97979 12.7143 4.44617 12.5904C4.64844 13.0588 4.98639 13.4776 5.27867 13.8729C5.6566 13.9207 9.12367 13.4914 11.1749 12.9206C13.2262 12.3498 15.2811 11.3285 16.7712 10.5221C16.834 10.028 16.4452 9.54195 16.3715 9.25649Z" fill="currentColor"/>
</g>
</g>
</svg>
