<svg  viewBox="0 0 24 24" fill="none" xmlns="http://www.w3.org/2000/svg">
<g clip-path="url(#clip0_2092_4299)">
<path fill-rule="evenodd" clip-rule="evenodd" d="M11.9998 13.4286C15.1557 13.4286 17.714 10.8702 17.714 7.71429L17.7138 7.65466C16.0878 7.61084 14.6079 6.97936 13.4798 5.9663C12.3098 7.01691 10.7616 7.65714 9.06445 7.65714C8.08729 7.65714 7.15819 7.44467 6.32218 7.06306C6.29794 7.27677 6.28548 7.49407 6.28548 7.71429C6.28548 10.8702 8.84385 13.4286 11.9998 13.4286ZM14.0145 4.48074C14.8862 5.46507 16.1244 6.11421 17.5153 6.21484C16.8566 3.78627 14.6368 2 11.9998 2C9.57385 2 7.50101 3.5117 6.67186 5.64447C7.38689 6.01746 8.20004 6.22857 9.06445 6.22857C10.6088 6.22857 11.9947 5.55384 12.945 4.48076C13.0806 4.32767 13.2753 4.24003 13.4798 4.24003C13.6842 4.24003 13.8789 4.32767 14.0145 4.48074ZM2.73122 21.0963C4.21738 17.4373 7.80735 14.8572 11.9999 14.8572C16.1925 14.8572 19.7825 17.4373 21.2686 21.0963C21.4485 21.539 21.1058 22 20.6279 22H3.37189C2.89407 22 2.55141 21.539 2.73122 21.0963Z" fill="currentColor"/>
</g>
<defs>
<clipPath id="clip0_2092_4299">
<rect width="20" height="20" fill="white" transform="translate(2 2)"/>
</clipPath>
</defs>
</svg>
