<svg width="24" height="24" viewBox="0 0 24 24" fill="none" xmlns="http://www.w3.org/2000/svg">
<g clip-path="url(#clip0_2011_4250)">
<path fill-rule="evenodd" clip-rule="evenodd" d="M7.34398 2.09133C7.88528 1.8523 8.51787 2.09735 8.7569 2.63866C8.99593 3.17996 8.75088 3.81255 8.20957 4.05157C7.70094 4.27617 7.24837 4.64282 6.91555 5.14185C6.58724 5.63415 5.922 5.76706 5.4297 5.43875C4.93741 5.11042 4.80448 4.44517 5.13281 3.95289C5.6984 3.10483 6.47357 2.47568 7.34398 2.09133ZM5.63191 19.8129L4.99397 19.0869C4.33413 18.3362 3.81625 17.4716 3.46561 16.5356L2.35807 13.5791C2.09832 12.8857 2.31758 12.1039 2.90003 11.6467C3.77365 10.9609 5.05951 11.2841 5.50518 12.3013L6.39098 14.3233L6.36824 14.4082C6.86371 14.5409 8.02051 15.0852 8.57815 16.0511C8.82471 16.4782 9.37078 16.6244 9.79783 16.3779C10.2249 16.1313 10.3712 15.5853 10.1246 15.1582C9.23821 13.6229 7.5683 12.8811 6.83067 12.6834L8.76745 5.45519C8.94991 4.77422 9.64987 4.37009 10.3308 4.55256C11.0118 4.73503 11.4159 5.43497 11.2335 6.11595L9.91197 11.0478C9.82074 11.3883 10.0228 11.7383 10.3633 11.8295C10.7038 11.9207 11.0537 11.7187 11.145 11.3782L12.962 4.59683C13.1445 3.91587 13.8444 3.51176 14.5254 3.69423C15.2063 3.87669 15.6104 4.57663 15.428 5.25757L13.6109 12.039C13.5197 12.3794 13.7217 12.7294 14.0622 12.8206C14.4027 12.9119 14.7527 12.7098 14.8439 12.3693L15.8181 8.73356C16.0092 8.02027 16.7463 7.60065 17.4573 7.8004C18.156 7.99676 18.567 8.71863 18.3791 9.4198L15.5775 19.8756C15.3888 20.5799 14.928 21.1804 14.2965 21.545C13.7348 21.8394 13.089 21.9322 12.4671 21.8077L7.26724 20.7677C6.63097 20.6404 6.05543 20.3044 5.63191 19.8129ZM19.3651 4.60613C19.8429 4.25686 20.5131 4.36093 20.8624 4.83859C21.4241 5.60665 21.7809 6.5391 21.8466 7.55633C21.8849 8.14683 21.437 8.65649 20.8466 8.69467C20.256 8.73287 19.7464 8.28513 19.7083 7.69463C19.6696 7.09605 19.4609 6.55225 19.1327 6.10342C18.7834 5.62576 18.8876 4.9554 19.3651 4.60613Z" fill="currentColor"/>
</g>
<defs>
<clipPath id="clip0_2011_4250">
<rect width="20" height="20" fill="white" transform="translate(2 2)"/>
</clipPath>
</defs>
</svg>
